<svg xmlns="http://www.w3.org/2000/svg" viewBox="0 0 100 100">
    <style>
        .st0{fill-rule:evenodd;clip-rule:evenodd;fill:#dd2e14}
    </style>
    <path class="st0" d="M40.1 53V0H48v53h-7.9z"/>
    <path class="st0" d="M0 45.1h48V53H0v-7.9z"/>
    <path class="st0" d="M0 41.4L49.9 6.6l4.5 6.5L0 51.1v-9.7z"/>
    <path class="st0" d="M99.6 45.1H53.2V53h46.4v-7.9z"/>
    <path class="st0" d="M99.6 41.4l-50-34.8-4.5 6.5 54.5 38v-9.7z"/>
    <path class="st0" d="M53.2 53V38.7h8V53h-8z"/>
    <path class="st0" d="M53.2 31.2h14.4v7.9H53.2v-7.9z"/>
    <path d="M14.2 85.2H8.5v14.2H.3V64h8.2v14.3h5.9L23.7 64h8.7L20.8 81.1l12 18.3h-9.3l-9.3-14.2zm39 14.8c-3.6 0-6.9-.8-9.8-2.3-2.9-1.6-5.2-3.7-6.9-6.5-1.7-2.8-2.5-5.9-2.5-9.4s.8-6.6 2.5-9.4c1.7-2.8 4-4.9 6.9-6.5 2.9-1.6 6.2-2.3 9.9-2.3 3.1 0 5.9.5 8.3 1.6 2.5 1.1 4.6 2.6 6.3 4.6l-5.3 4.8c-2.4-2.8-5.4-4.1-8.9-4.1-2.2 0-4.2.5-5.9 1.4-1.7 1-3.1 2.3-4 4-1 1.7-1.4 3.7-1.4 5.9s.5 4.1 1.4 5.9c1 1.7 2.3 3.1 4 4 1.7 1 3.7 1.4 5.9 1.4 3.5 0 6.5-1.4 8.9-4.2l5.3 4.8c-1.7 2.1-3.8 3.6-6.3 4.7s-5.3 1.6-8.4 1.6zM100 70.7H88.6v28.7h-8.1V70.7H69.2V64H100v6.7z" fill="#dd2e14"/>
</svg>
