<?xml version="1.0" encoding="utf-8"?>
<!-- Generator: Adobe Illustrator 22.1.0, SVG Export Plug-In . SVG Version: 6.00 Build 0)  -->
<svg version="1.1" id="Слой_1" xmlns="http://www.w3.org/2000/svg" xmlns:xlink="http://www.w3.org/1999/xlink" x="0px" y="0px"
	 viewBox="0 0 100 100" style="enable-background:new 0 0 100 100;" xml:space="preserve">
<style type="text/css">
	.st0{fill-rule:evenodd;clip-rule:evenodd;fill:#DD2E14;}
	.st1{fill:#DD2E14;}
</style>
<g>
	<polygon class="st0" points="40.1,53 40.1,0 48,0 48,53 40.1,53 	"/>
	<polygon class="st0" points="0,45.1 48,45.1 48,53 0,53 0,45.1 	"/>
	<polygon class="st0" points="0,41.4 49.9,6.6 54.4,13.1 0,51.1 0,41.4 	"/>
	<polygon class="st0" points="99.6,45.1 53.2,45.1 53.2,53 99.6,53 99.6,45.1 	"/>
	<polygon class="st0" points="99.6,41.4 49.6,6.6 45.1,13.1 99.6,51.1 99.6,41.4 	"/>
	<polygon class="st0" points="53.2,53 53.2,38.7 61.2,38.7 61.2,53 53.2,53 	"/>
	<polygon class="st0" points="53.2,31.2 67.6,31.2 67.6,39.1 53.2,39.1 53.2,31.2 	"/>
	<path class="st1" d="M14.2,85.2H8.5v14.2H0.3V64h8.2v14.3h5.9L23.7,64h8.7L20.8,81.1l12,18.3h-9.3L14.2,85.2L14.2,85.2z M53.2,100
		c-3.6,0-6.9-0.8-9.8-2.3c-2.9-1.6-5.2-3.7-6.9-6.5c-1.7-2.8-2.5-5.9-2.5-9.4c0-3.5,0.8-6.6,2.5-9.4c1.7-2.8,4-4.9,6.9-6.5
		c2.9-1.6,6.2-2.3,9.9-2.3c3.1,0,5.9,0.5,8.3,1.6c2.5,1.1,4.6,2.6,6.3,4.6l-5.3,4.8c-2.4-2.8-5.4-4.1-8.9-4.1
		c-2.2,0-4.2,0.5-5.9,1.4c-1.7,1-3.1,2.3-4,4c-1,1.7-1.4,3.7-1.4,5.9c0,2.2,0.5,4.1,1.4,5.9c1,1.7,2.3,3.1,4,4
		c1.7,1,3.7,1.4,5.9,1.4c3.5,0,6.5-1.4,8.9-4.2l5.3,4.8c-1.7,2.1-3.8,3.6-6.3,4.7C59.1,99.5,56.3,100,53.2,100L53.2,100z M100,70.7
		H88.6v28.7h-8.1V70.7H69.2V64H100V70.7L100,70.7z"/>
</g>
</svg>
